<?xml version="1.0" encoding="UTF-8" standalone="no"?>
<svg
   width="3697"
   height="799.15161"
   viewBox="0 0 3697 799.15161"
   fill="none"
   version="1.1"
   id="svg7"
   sodipodi:docname="light.svg"
   inkscape:export-filename="light.svg"
   inkscape:export-xdpi="96"
   inkscape:export-ydpi="96"
   inkscape:version="1.3 (0e150ed, 2023-07-21)"
   xmlns:inkscape="http://www.inkscape.org/namespaces/inkscape"
   xmlns:sodipodi="http://sodipodi.sourceforge.net/DTD/sodipodi-0.dtd"
   xmlns="http://www.w3.org/2000/svg"
   xmlns:svg="http://www.w3.org/2000/svg">
  <sodipodi:namedview
     id="namedview7"
     pagecolor="#ffffff"
     bordercolor="#000000"
     borderopacity="0.25"
     inkscape:showpageshadow="2"
     inkscape:pageopacity="0.0"
     inkscape:pagecheckerboard="0"
     inkscape:deskcolor="#d1d1d1"
     inkscape:zoom="0.10771337"
     inkscape:cx="1847.4958"
     inkscape:cy="1095.5"
     inkscape:window-width="1312"
     inkscape:window-height="449"
     inkscape:window-x="0"
     inkscape:window-y="25"
     inkscape:window-maximized="0"
     inkscape:current-layer="svg7" />
  <g
     clip-path="url(#clip0_115_2)"
     id="g7"
     transform="translate(0,-1387.3484)">
    <path
       d="m 3586,1388 111,107 v 388 H 1682 309 0 v -241.5 l 309,142.5 138.5,-59.5 83,83 115,-83 110.5,-55.5 202,138.5 h 237.5 l 146.5,-43.5 174,-39.5 95,39.5 241.5,-39.5 356,-83 320.5,-103 245.5,-43.5 150.5,43.5 435.5,-95 79,51.5 z"
       fill="#96b6c5"
       stroke="#96b6c5"
       id="path1" />
    <path
       d="M 954.046,2013.15 C 830.897,2005.74 412.621,1947.26 92.6328,1894.19 L -17,1883 v 303 h 3714 v -211.61 l -136.17,30.41 -333.9,8.35 -211.66,-8.35 -492.03,-22.06 -505.55,22.06 -580.12,8.35 z"
       fill="#a3b899"
       stroke="#a3b899"
       id="path2" />
    <path
       d="m 0,2018.22 v -168.5 c 0,0 81,43.5 218,20.5 137,-23 398.5,0 398.5,0 H 963 1113.5 c 200.5,0 338,14.5 530,-20.5 192,-35 449.5,3 554,20.5 C 2302,1887.72 1902,1943 1902,1943 l -203.5,49.5 -227,25.72 -444.5,67.28 -457,-32.28 -317,-35 z"
       fill="#dde6d5"
       stroke="#dde6d5"
       id="path3" />
    <path
       d="m 1453.94,2063 c 0,0 -785.44,57.5 -651.94,-26.5 133.5,-84 463.44,-39.5 463.44,-39.5 l 377,-48.5 421.5,-57 553.5,-79 601.5,-74.5 478.5,-22 v 281 l -206,39.5 h -272.5 l -316,-9.5 h -417.5 l -509,9.5 z"
       fill="#eee0c9"
       stroke="#eee0c9"
       id="path4" />
    <path
       d="m 2618,2057 v -62.5 l 107,-54.5 88,54.5 v 62.5 z"
       fill="#ffffff"
       stroke="#ffffff"
       id="path5" />
    <path
       d="m 2762,2077 v -62.5 l 107,-54.5 88,54.5 v 62.5 z"
       fill="#ffffff"
       stroke="#f5f5f5"
       id="path6" />
    <path
       d="M 150,2101 H 0 v -144.5 c 0,0 191,68 376.5,0 185.5,-68 951.5,99 933.5,113 -18,14 -201.5,31.5 -276.5,31.5 h -224 z"
       fill="#adc4ce"
       stroke="#adc4ce"
       id="path7" />
  </g>
  <defs
     id="defs7">
    <clipPath
       id="clip0_115_2">
      <rect
         width="3697"
         height="2191"
         fill="#ffffff"
         id="rect7"
         x="0"
         y="0" />
    </clipPath>
  </defs>
</svg>
