<svg width="44" height="44" viewBox="0 0 44 44" fill="none" xmlns="http://www.w3.org/2000/svg">
<g clip-path="url(#clip0_11_10)">
<path d="M44 22C44 34.1502 34.1503 44 22 44C9.84974 44 0 34.1502 0 22C0 9.84972 9.84974 -1.72123e-05 22 -1.72123e-05C34.1503 -1.72123e-05 44 9.84972 44 22Z" fill="black"/>
<path d="M23.4 4.55225V8.71643L30.1 11.0299V11.7061V12.8806L22.9534 13.5213M22.9534 13.5213L16.2534 15.194M22.9534 13.5213V18.9667M22.9534 18.9667L16.2534 20.7463M22.9534 18.9667V24.4122M22.9534 24.4122L16.2534 26.2985M22.9534 24.4122V28.6119V30.4627L16.2534 32.3134V33.2388L30.9934 36.2463" stroke="#FCEEE9" stroke-width="4"/>
<path d="M13.2533 27.2239C13.2533 28.5016 12.2535 29.5373 11.02 29.5373C9.78658 29.5373 8.78668 28.5016 8.78668 27.2239C8.78668 25.9462 9.78658 24.9105 11.02 24.9105C12.2535 24.9105 13.2533 25.9462 13.2533 27.2239Z" fill="#FCEEE9"/>
</g>
<defs>
<clipPath id="clip0_11_10">
<rect width="44" height="44" fill="white"/>
</clipPath>
</defs>
</svg>
